<?xml version="1.0" standalone="no"?>
<!DOCTYPE svg PUBLIC "-//W3C//DTD SVG 20010904//EN"
 "http://www.w3.org/TR/2001/REC-SVG-20010904/DTD/svg10.dtd">
<svg version="1.0" xmlns="http://www.w3.org/2000/svg"
 width="306.000000pt" height="92.000000pt" viewBox="0 0 306.000000 92.000000"
 preserveAspectRatio="xMidYMid meet">

<g transform="translate(0.000000,92.000000) scale(0.100000,-0.100000)"
fill="#000000" stroke="none">
<path d="M0 460 l0 -460 1530 0 1530 0 0 460 0 460 -1530 0 -1530 0 0 -460z
m607 356 c63 -35 98 -83 114 -154 21 -102 -22 -197 -114 -248 -50 -28 -58 -29
-209 -32 l-158 -4 0 237 0 237 158 -4 c151 -3 159 -4 209 -32z m383 -201 l0
-235 -70 0 -70 0 0 235 0 235 70 0 70 0 0 -235z m300 85 c34 -82 64 -150 65
-150 1 0 31 68 65 150 l63 150 64 0 c34 0 63 -3 63 -7 0 -4 -44 -110 -97 -235
l-97 -228 -66 0 -67 0 -97 228 c-53 125 -96 230 -96 235 0 4 31 7 69 7 l68 0
63 -150z m805 -76 c55 -124 102 -230 103 -235 2 -5 -28 -9 -66 -9 l-70 0 -18
45 -17 45 -99 0 -99 0 -19 -45 -19 -45 -66 0 c-36 0 -65 3 -65 6 0 3 46 109
102 235 l101 229 66 0 66 0 100 -226z m788 202 c108 -53 123 -204 29 -282
l-26 -21 47 -67 c26 -37 47 -69 47 -71 0 -3 -31 -5 -70 -5 l-69 0 -41 60 c-37
54 -44 60 -75 60 l-35 0 0 -60 0 -60 -70 0 -70 0 0 236 0 236 148 -4 c119 -3
154 -7 185 -22z m-1033 -621 c8 -10 8 -19 0 -35 -9 -16 -8 -25 1 -36 6 -8 7
-14 1 -14 -5 0 -15 7 -22 15 -16 19 -40 19 -40 0 0 -8 -4 -15 -10 -15 -5 0
-10 22 -10 49 0 39 4 50 18 53 24 5 49 -2 62 -17z m205 15 c17 -7 15 -9 -12
-9 -40 -1 -42 -15 -5 -33 37 -18 37 -52 -2 -56 -16 -2 -33 1 -39 7 -7 7 -2 10
18 8 39 -3 42 18 5 31 -33 12 -39 36 -12 51 20 12 21 12 47 1z m145 0 c0 -5
-7 -10 -15 -10 -11 0 -15 -12 -15 -45 0 -25 -4 -45 -10 -45 -5 0 -10 20 -10
45 0 36 -4 45 -17 46 -10 1 0 5 22 9 22 4 41 8 43 9 1 0 2 -3 2 -9z m134 -80
c6 -22 5 -23 -6 -9 -14 18 -58 16 -70 -3 -4 -7 -10 -10 -13 -6 -4 3 6 30 21
59 l26 53 18 -34 c10 -19 21 -46 24 -60z m151 -18 c-3 -3 -19 10 -35 29 l-29
34 -1 -32 c0 -18 -4 -33 -10 -33 -5 0 -10 23 -10 50 0 28 3 50 8 50 4 0 19
-14 34 -32 l27 -33 1 31 c0 53 15 48 18 -6 2 -29 1 -55 -3 -58z m283 85 c19
-15 15 -65 -7 -77 -48 -25 -99 7 -87 55 10 40 57 51 94 22z m-1087 -4 c0 -10
2 -37 3 -60 l2 -43 -748 0 -748 0 0 60 0 60 745 0 c703 0 745 -1 746 -17z
m246 -61 c-2 -15 -4 -2 -4 28 0 30 2 43 4 28 2 -16 2 -40 0 -56z m686 71 c-20
-4 -23 -11 -25 -51 l-2 -47 -3 47 c-3 39 -8 47 -26 51 -12 2 1 4 28 4 28 0 40
-2 28 -4z"/>
<path d="M380 615 l0 -125 60 0 c100 0 150 42 150 125 0 83 -50 125 -150 125
l-60 0 0 -125z"/>
<path d="M1903 658 c-12 -29 -24 -61 -28 -70 -6 -16 0 -18 49 -18 31 0 56 4
56 9 0 11 -41 114 -50 124 -4 4 -16 -16 -27 -45z"/>
<path d="M2690 675 l0 -65 55 0 c42 0 60 5 75 20 24 24 26 57 4 88 -13 19 -24
22 -75 22 l-59 0 0 -65z"/>
<path d="M1790 184 c0 -22 3 -24 23 -18 29 9 31 10 24 29 -4 8 -16 15 -27 15
-15 0 -20 -7 -20 -26z"/>
<path d="M2281 181 c-10 -18 -9 -21 9 -21 22 0 25 7 11 29 -7 11 -11 9 -20 -8z"/>
<path d="M2703 203 c-20 -7 -15 -51 6 -63 38 -20 71 13 51 51 -10 18 -31 23
-57 12z"/>
</g>
</svg>
